<?xml version="1.0" encoding="UTF-8"?>
<svg xmlns="http://www.w3.org/2000/svg" xmlns:xlink="http://www.w3.org/1999/xlink" width="32px" height="32px" viewBox="0 0 32 31" version="1.1">
<g id="surface1">
<path style=" stroke:none;fill-rule:nonzero;fill:rgb(0%,0%,0%);fill-opacity:1;" d="M 3.429688 0.152344 C 2.164062 0.386719 0.96875 1.355469 0.371094 2.617188 C 0.0703125 3.253906 0.0703125 3.335938 0.0703125 15.5 L 0.0703125 27.746094 L 0.46875 28.535156 C 0.925781 29.4375 1.738281 30.210938 2.691406 30.640625 C 3.34375 30.929688 3.375 30.929688 15.871094 30.929688 C 30.164062 30.929688 29.339844 31 30.605469 29.769531 C 31.914062 28.480469 31.816406 29.683594 31.859375 15.636719 L 31.886719 3.253906 L 31.460938 2.394531 C 30.960938 1.410156 30.164062 0.679688 29.195312 0.316406 C 28.582031 0.0820312 27.699219 0.0703125 16.300781 0.0546875 C 9.566406 0.0429688 3.773438 0.0820312 3.429688 0.152344 Z M 22.777344 11.679688 L 22.777344 18.238281 L 22.378906 18.972656 C 21.992188 19.707031 21.964844 19.734375 19.714844 20.855469 C 18.460938 21.480469 17.378906 21.992188 17.324219 22.003906 C 17.265625 22.003906 17.222656 19 17.253906 15.320312 C 17.296875 8.011719 17.265625 8.277344 18.179688 7.460938 C 18.519531 7.140625 22.363281 5.148438 22.675781 5.132812 C 22.734375 5.121094 22.777344 8.066406 22.777344 11.679688 Z M 14.660156 19.222656 C 14.660156 22.449219 14.605469 22.792969 13.980469 23.429688 C 13.679688 23.75 9.621094 25.878906 9.324219 25.878906 C 9.28125 25.878906 9.253906 24.523438 9.253906 22.863281 C 9.265625 18.683594 9.210938 18.765625 12.457031 17.1875 C 13.550781 16.648438 14.492188 16.207031 14.5625 16.207031 C 14.621094 16.191406 14.660156 17.5625 14.660156 19.222656 Z M 14.660156 19.222656 "/>
</g>
</svg>
